# xmcd
#
# Track frame offsets:
#	150
#	15168
#	27543
#	47593
#	62515
#	78025
#	99765
#	113925
#	131290
#	146548
#	169055
#	181668
#	203200
#	214035
#
# Disc length: 3099 seconds
#
# Revision: 0
# Processed by: cddbd v1.5.2PL0 Copyright (c) Steve Scherf et al.
# Submitted via: audiograbber 1.83.01
#
DISCID=a70c190e
DTITLE=Kukuruza - Crossing Borders
DYEAR=1993
DGENRE=Bluegrass
TTITLE0=Stradaniya
TTITLE1=Porushka-Poraniya
TTITLE2=Gornitsa
TTITLE3=Got With God My Lovely
TTITLE4=I Remember When I Was Young
TTITLE5=The Wanderer
TTITLE6=Falling Corns
TTITLE7=Mother I'm Lonely
TTITLE8=Cossacks' Song
TTITLE9=The Secret
TTITLE10=Love Takes Work
TTITLE11=Enough
TTITLE12=Roses In The Snow
TTITLE13=Im Sitting On A Stone
EXTD=
EXTT0=
EXTT1=
EXTT2=
EXTT3=
EXTT4=
EXTT5=
EXTT6=
EXTT7=
EXTT8=
EXTT9=
EXTT10=
EXTT11=
EXTT12=
EXTT13=
PLAYORDER=
